<svg width="403" height="65" viewBox="0 0 403 65" fill="none" xmlns="http://www.w3.org/2000/svg">
<path d="M45.9973 13.0543H378.003" stroke="#C4C4C4" stroke-width="8"/>
<path d="M47 13H147" stroke="#346751" stroke-width="8"/>
<circle cx="43.5" cy="12.5" r="12.5" fill="#346751"/>
<circle cx="154.5" cy="12.5" r="12.5" fill="#C4C4C4"/>
<path d="M278 12.5C278 19.4036 272.404 25 265.5 25C258.596 25 253 19.4036 253 12.5C253 5.59647 258.596 3.24536e-05 265.5 3.24536e-05C272.404 3.24536e-05 278 5.59647 278 12.5Z" fill="#C4C4C4"/>
<path d="M389 12.5C389 19.4036 383.404 25 376.5 25C369.596 25 364 19.4036 364 12.5C364 5.59647 369.596 3.24536e-05 376.5 3.24536e-05C383.404 3.24536e-05 389 5.59647 389 12.5Z" fill="#C4C4C4"/>
<path d="M25.0234 51.5781L25.0469 51.7031L25.0781 51.5781L28.0469 41.625H29.0312L25.4766 53H24.6328L21.0781 41.625H22.0547L25.0234 51.5781ZM36.0312 47.5547H31.6172V52.1719H36.6953V53H30.7266V41.625H36.6562V42.4688H31.6172V46.7266H36.0312V47.5547ZM45.8359 53H44.9453L39.5781 43.3125V53H38.6797V41.625H39.5781L44.9531 51.3281V41.625H45.8359V53ZM55.1484 41.625V49.6953C55.1432 50.7943 54.8464 51.6458 54.2578 52.25C53.6745 52.8542 52.8438 53.1562 51.7656 53.1562C50.6719 53.1562 49.8333 52.8594 49.25 52.2656C48.6719 51.6667 48.3828 50.7995 48.3828 49.6641V41.625H49.2734V49.6328C49.2734 51.4297 50.1042 52.3281 51.7656 52.3281C53.401 52.3281 54.2292 51.4557 54.25 49.7109V41.625H55.1484ZM62.9688 47.5547H58.5547V52.1719H63.6328V53H57.6641V41.625H63.5938V42.4688H58.5547V46.7266H62.9688V47.5547Z" fill="#161616"/>
<path d="M139.336 52V40.625H142.016C143.25 40.625 144.227 41.0208 144.945 41.8125C145.664 42.599 146.034 43.6849 146.055 45.0703V47.4531C146.055 48.8802 145.69 49.9948 144.961 50.7969C144.237 51.599 143.219 52 141.906 52H139.336ZM140.227 41.4688V51.1719H141.953C142.969 51.1719 143.755 50.8594 144.312 50.2344C144.87 49.6042 145.156 48.7057 145.172 47.5391V45.1562C145.172 43.9896 144.898 43.0833 144.352 42.4375C143.81 41.7917 143.023 41.4688 141.992 41.4688H140.227ZM153.461 48.8203H149.195L148.227 52H147.297L150.922 40.625H151.75L155.375 52H154.445L153.461 48.8203ZM149.453 47.9844H153.203L151.328 41.8828L149.453 47.9844ZM162.562 41.4688H159.328V52H158.43V41.4688H155.203V40.625H162.562V41.4688ZM169.703 46.5547H165.289V51.1719H170.367V52H164.398V40.625H170.328V41.4688H165.289V45.7266H169.703V46.5547Z" fill="#161616"/>
<path d="M241.172 52V40.625H243.852C245.086 40.625 246.062 41.0208 246.781 41.8125C247.5 42.599 247.87 43.6849 247.891 45.0703V47.4531C247.891 48.8802 247.526 49.9948 246.797 50.7969C246.073 51.599 245.055 52 243.742 52H241.172ZM242.062 41.4688V51.1719H243.789C244.805 51.1719 245.591 50.8594 246.148 50.2344C246.706 49.6042 246.992 48.7057 247.008 47.5391V45.1562C247.008 43.9896 246.734 43.0833 246.188 42.4375C245.646 41.7917 244.859 41.4688 243.828 41.4688H242.062ZM255.602 46.5547H251.188V51.1719H256.266V52H250.297V40.625H256.227V41.4688H251.188V45.7266H255.602V46.5547ZM264.914 41.4688H261.68V52H260.781V41.4688H257.555V40.625H264.914V41.4688ZM271.297 48.8203H267.031L266.062 52H265.133L268.758 40.625H269.586L273.211 52H272.281L271.297 48.8203ZM267.289 47.9844H271.039L269.164 41.8828L267.289 47.9844ZM275.961 52H275.07V40.625H275.961V52ZM279.711 51.1719H284.398V52H278.812V40.625H279.711V51.1719ZM291.578 49.2031C291.578 48.5677 291.396 48.0677 291.031 47.7031C290.672 47.3385 289.997 46.9896 289.008 46.6562C288.018 46.3229 287.292 45.9505 286.828 45.5391C286.219 45.0026 285.914 44.2943 285.914 43.4141C285.914 42.5443 286.214 41.8359 286.812 41.2891C287.411 40.7422 288.185 40.4688 289.133 40.4688C290.102 40.4688 290.893 40.7865 291.508 41.4219C292.122 42.0573 292.43 42.875 292.43 43.875H291.531C291.531 43.1094 291.315 42.4922 290.883 42.0234C290.456 41.5495 289.872 41.3125 289.133 41.3125C288.414 41.3125 287.846 41.5078 287.43 41.8984C287.018 42.2839 286.812 42.7839 286.812 43.3984C286.812 43.9714 287.008 44.4401 287.398 44.8047C287.789 45.1693 288.411 45.4948 289.266 45.7812C290.12 46.0625 290.766 46.3568 291.203 46.6641C291.641 46.9661 291.964 47.3229 292.172 47.7344C292.38 48.1458 292.484 48.6302 292.484 49.1875C292.484 50.0781 292.182 50.7969 291.578 51.3438C290.979 51.8854 290.185 52.1562 289.195 52.1562C288.529 52.1562 287.919 52.0208 287.367 51.75C286.82 51.474 286.391 51.0807 286.078 50.5703C285.771 50.0547 285.617 49.4479 285.617 48.75H286.508C286.508 49.5521 286.75 50.1823 287.234 50.6406C287.719 51.099 288.372 51.3281 289.195 51.3281C289.914 51.3281 290.49 51.1354 290.922 50.75C291.359 50.3646 291.578 49.849 291.578 49.2031Z" fill="#161616"/>
<path d="M360.203 48.2031C360.203 47.5677 360.021 47.0677 359.656 46.7031C359.297 46.3385 358.622 45.9896 357.633 45.6562C356.643 45.3229 355.917 44.9505 355.453 44.5391C354.844 44.0026 354.539 43.2943 354.539 42.4141C354.539 41.5443 354.839 40.8359 355.438 40.2891C356.036 39.7422 356.81 39.4688 357.758 39.4688C358.727 39.4688 359.518 39.7865 360.133 40.4219C360.747 41.0573 361.055 41.875 361.055 42.875H360.156C360.156 42.1094 359.94 41.4922 359.508 41.0234C359.081 40.5495 358.497 40.3125 357.758 40.3125C357.039 40.3125 356.471 40.5078 356.055 40.8984C355.643 41.2839 355.438 41.7839 355.438 42.3984C355.438 42.9714 355.633 43.4401 356.023 43.8047C356.414 44.1693 357.036 44.4948 357.891 44.7812C358.745 45.0625 359.391 45.3568 359.828 45.6641C360.266 45.9661 360.589 46.3229 360.797 46.7344C361.005 47.1458 361.109 47.6302 361.109 48.1875C361.109 49.0781 360.807 49.7969 360.203 50.3438C359.604 50.8854 358.81 51.1562 357.82 51.1562C357.154 51.1562 356.544 51.0208 355.992 50.75C355.445 50.474 355.016 50.0807 354.703 49.5703C354.396 49.0547 354.242 48.4479 354.242 47.75H355.133C355.133 48.5521 355.375 49.1823 355.859 49.6406C356.344 50.099 356.997 50.3281 357.82 50.3281C358.539 50.3281 359.115 50.1354 359.547 49.75C359.984 49.3646 360.203 48.849 360.203 48.2031ZM369.75 39.625V47.6953C369.745 48.7943 369.448 49.6458 368.859 50.25C368.276 50.8542 367.445 51.1562 366.367 51.1562C365.273 51.1562 364.435 50.8594 363.852 50.2656C363.273 49.6667 362.984 48.7995 362.984 47.6641V39.625H363.875V47.6328C363.875 49.4297 364.706 50.3281 366.367 50.3281C368.003 50.3281 368.831 49.4557 368.852 47.7109V39.625H369.75ZM372.266 51V39.625H375.148C376.174 39.625 376.951 39.8776 377.477 40.3828C378.008 40.8828 378.273 41.6224 378.273 42.6016C378.273 43.1849 378.138 43.6927 377.867 44.125C377.596 44.5573 377.221 44.8698 376.742 45.0625C377.294 45.2031 377.74 45.526 378.078 46.0312C378.422 46.5312 378.594 47.1198 378.594 47.7969C378.594 48.7865 378.323 49.5677 377.781 50.1406C377.24 50.7135 376.471 51 375.477 51H372.266ZM373.156 45.5391V50.1719H375.516C376.193 50.1719 376.727 49.9635 377.117 49.5469C377.508 49.1302 377.703 48.5521 377.703 47.8125C377.703 47.125 377.521 46.5781 377.156 46.1719C376.797 45.7656 376.294 45.5547 375.648 45.5391H373.156ZM373.156 44.7188H375.227C375.904 44.7188 376.43 44.5391 376.805 44.1797C377.18 43.8203 377.367 43.2865 377.367 42.5781C377.367 41.8542 377.182 41.3229 376.812 40.9844C376.448 40.6406 375.893 40.4688 375.148 40.4688H373.156V44.7188ZM382.023 39.625L385.469 49.6328L388.93 39.625H390.109V51H389.219V46.0703L389.297 41.1094L385.812 51H385.125L381.656 41.1562L381.734 46.0391V51H380.844V39.625H382.023ZM393.867 51H392.977V39.625H393.867V51ZM402.992 40.4688H399.758V51H398.859V40.4688H395.633V39.625H402.992V40.4688Z" fill="#161616"/>
</svg>
